<svg xmlns="http://www.w3.org/2000/svg" xmlns:xlink="http://www.w3.org/1999/xlink" width="600" zoomAndPan="magnify" viewBox="0 0 450 225" height="300" preserveAspectRatio="xMidYMid meet" version="1.0"><defs><clipPath id="4ac1d49eab"><path d="M 149 34.8125 L 301.742188 34.8125 L 301.742188 190.0625 L 149 190.0625 Z M 149 34.8125 " clip-rule="nonzero"/></clipPath></defs><rect x="-45" width="540" fill="#ffffff" y="-22.5" height="270" fill-opacity="1"/><rect x="-45" width="540" fill="#ffffff" y="-22.5" height="270" fill-opacity="1"/><path fill="#d6ba59" d="M 157.433594 72.898438 C 158.769531 70.652344 160.214844 68.476562 161.761719 66.382812 C 164.035156 67.265625 166.691406 67.972656 169.789062 68.421875 C 169.789062 68.421875 163.757812 68.640625 157.433594 72.898438 " fill-opacity="1" fill-rule="nonzero"/><path fill="#d6ba59" d="M 195.277344 184.582031 C 193.433594 183.839844 191.625 183.027344 189.855469 182.152344 C 189.785156 178.082031 188.597656 173.492188 185.789062 168.347656 C 185.789062 168.347656 191.636719 175.132812 195.277344 184.582031 " fill-opacity="1" fill-rule="nonzero"/><path fill="#d6ba59" d="M 235.546875 84.039062 C 228.003906 82.734375 231.003906 76.289062 239.984375 76.820312 C 253.003906 77.589844 255.183594 87.738281 255.183594 87.738281 C 248.6875 79.320312 243.089844 85.347656 235.546875 84.039062 " fill-opacity="1" fill-rule="nonzero"/><g clip-path="url(#4ac1d49eab)"><path fill="#d6ba59" d="M 266.9375 152.058594 C 266.9375 152.058594 264.097656 140.652344 253.105469 133.625 C 253.105469 133.625 269.980469 137.480469 279.730469 127.808594 C 279.730469 127.808594 281.796875 143.574219 266.9375 152.058594 Z M 279.855469 122.710938 C 270.609375 132.230469 255.945312 127.582031 249.21875 123.90625 C 241.578125 119.730469 236.921875 113.851562 236.921875 113.851562 C 250.042969 115.628906 255.863281 108.992188 255.863281 108.992188 C 255.863281 108.992188 229.371094 108.195312 222.945312 96.082031 C 216.519531 83.96875 226.929688 69.136719 226.929688 69.136719 C 252.21875 65.859375 261.820312 88.839844 261.820312 88.839844 C 296.753906 103.847656 283.996094 111.445312 283.996094 111.445312 C 284.023438 102.390625 272.875 108.101562 272.875 108.101562 C 272.875 108.101562 289.101562 113.191406 279.855469 122.710938 Z M 259.503906 181.753906 C 284.707031 168.910156 301.96875 142.71875 301.96875 112.496094 C 301.96875 69.589844 267.1875 34.808594 224.285156 34.808594 C 211.445312 34.808594 199.332031 37.925781 188.660156 43.441406 C 189.34375 43.3125 190.042969 43.171875 190.761719 43.019531 C 219.144531 36.957031 229.066406 48.457031 229.066406 48.457031 C 227.402344 44.707031 223.285156 38.175781 223.285156 38.175781 C 247.804688 43.683594 250.566406 70.875 250.566406 70.875 C 233.054688 49.125 202.378906 55.082031 180.308594 53.066406 C 178.429688 52.894531 176.722656 52.632812 175.175781 52.300781 C 173.304688 53.828125 171.507812 55.441406 169.785156 57.136719 C 180.214844 59.273438 193.113281 60.410156 205.601562 59.140625 C 231.855469 56.476562 241.03125 67.296875 241.03125 67.296875 C 214.976562 58.734375 207.570312 74.265625 175.410156 74.546875 C 165.5625 74.632812 158.539062 76.925781 154.171875 79.003906 C 152.769531 81.929688 151.546875 84.957031 150.515625 88.074219 C 156.019531 82.382812 163.324219 79.148438 170.6875 79.339844 C 196.761719 80.019531 208.003906 72.667969 208.003906 72.667969 C 198.265625 86.535156 178.210938 91.257812 163.695312 100.089844 C 148.023438 109.625 148.382812 126.234375 150.039062 135.425781 C 154.035156 148.371094 161.320312 159.871094 170.921875 168.949219 C 169.570312 166.449219 167.925781 163.839844 165.960938 161.09375 C 152.265625 141.921875 153.921875 117.132812 168.160156 106.550781 C 175.835938 100.84375 189.855469 98.714844 205.777344 84.558594 C 205.777344 84.558594 202.429688 96.519531 180.789062 112.296875 C 163.78125 124.699219 192.664062 142.066406 204.433594 170.492188 C 207.316406 177.457031 208.785156 183.492188 209.234375 188.722656 C 214.105469 189.675781 219.136719 190.179688 224.285156 190.179688 C 225.859375 190.179688 227.421875 190.128906 228.972656 190.039062 C 222.886719 166.222656 195.421875 147.175781 190.230469 127.316406 C 184.582031 105.730469 209.199219 93.601562 209.199219 93.601562 C 192.386719 111.617188 204.898438 132.28125 204.898438 132.28125 C 204.042969 104.777344 230.335938 109.910156 230.335938 109.910156 C 205.742188 113.960938 218.324219 128.484375 239.144531 161.667969 C 244.957031 170.9375 246.875 179.425781 246.441406 186.972656 C 248.992188 186.214844 251.484375 185.328125 253.917969 184.324219 C 252.222656 169.816406 246.3125 158.347656 239.839844 150.488281 C 237.132812 147.199219 234.71875 144.050781 232.132812 141.230469 C 216.730469 124.457031 228.414062 116.609375 239.753906 122.390625 C 239.753906 122.390625 222.082031 121.042969 245.828125 137.832031 C 264.574219 151.085938 263.15625 169.722656 259.503906 181.753906 " fill-opacity="1" fill-rule="nonzero"/></g></svg>